<svg width="16" height="16" viewBox="0 0 16 16" fill="none" xmlns="http://www.w3.org/2000/svg">
    <path d="M5.20078 1.59998L10.2258 6.62498L7.42578 9.42498L0.550781 2.54998L5.20078 1.59998Z"
        fill="#ED4C5C" />
    <path
        d="M2.65038 1.45C1.35038 1.675 0.400384 2.125 0.500384 2.475C0.625384 2.825 1.77538 2.925 3.10038 2.7C4.40038 2.45 5.37538 2 5.25038 1.65C5.12538 1.3 3.95038 1.225 2.65038 1.45Z"
        fill="#ED4C5C" />
    <path
        d="M2.70007 1.44997C1.47507 1.64997 0.575073 2.09997 0.700073 2.42497C0.825073 2.74997 1.90007 2.82497 3.12507 2.62497C4.35007 2.42497 5.25007 1.97497 5.12507 1.67497C5.00007 1.32497 3.92507 1.22497 2.70007 1.44997Z"
        fill="#FF8080" />
    <path d="M4.21387 6.59072L7.43112 3.37347L11.6384 7.58072L8.42087 10.7982L4.21387 6.59072Z"
        fill="#E8E8E8" />
    <path d="M11.1016 13.6442L14.4598 10.285L15.5031 11.3277L12.1448 14.687L11.1016 13.6442Z"
        fill="#555B61" />
    <path d="M7.01172 9.55702L10.3692 6.19727L11.3417 7.16927L7.98422 10.529L7.01172 9.55702Z"
        fill="#B2C1C0" />
    <path d="M7.30762 10.1995L11.0199 6.487L15.3329 10.8007L11.6204 14.5133L7.30762 10.1995Z"
        fill="#3E4347" />
</svg>