<svg width="71" height="70" viewBox="0 0 71 70" fill="none" xmlns="http://www.w3.org/2000/svg">
<g clip-path="url(#clip0_9_147)">
<path d="M35.96 70C29.0377 70 22.2708 67.9473 16.5151 64.1014C10.7593 60.2556 6.27326 54.7893 3.62419 48.3939C0.975126 41.9985 0.282009 34.9612 1.63249 28.1718C2.98297 21.3825 6.3164 15.1461 11.2113 10.2513C16.1061 5.35644 22.3425 2.02301 29.1318 0.672531C35.9212 -0.677952 42.9585 0.0151651 49.3539 2.66423C55.7493 5.3133 61.2156 9.79933 65.0614 15.5551C68.9073 21.3108 70.96 28.0777 70.96 35C70.9494 44.2793 67.2585 53.1756 60.697 59.737C54.1356 66.2985 45.2393 69.9894 35.96 70ZM35.96 2.00002C29.4332 2.00002 23.053 3.93543 17.6262 7.56152C12.1994 11.1876 7.96964 16.3415 5.47195 22.3715C2.97426 28.4014 2.32075 35.0366 3.59406 41.438C4.86737 47.8394 8.01032 53.7194 12.6255 58.3345C17.2406 62.9497 23.1207 66.0926 29.522 67.3659C35.9234 68.6392 42.5586 67.9857 48.5886 65.488C54.6185 62.9903 59.7724 58.7606 63.3985 53.3338C67.0246 47.907 68.96 41.5268 68.96 35C68.9499 26.251 65.4699 17.8631 59.2834 11.6766C53.0969 5.49008 44.7091 2.01007 35.96 2.00002Z" fill="#BE185D"/>
<path d="M34.6809 49.1741C30.1956 49.0138 25.819 47.7498 21.9389 45.4941C21.8214 45.4224 21.72 45.3272 21.641 45.2145C21.5621 45.1018 21.5072 44.974 21.4799 44.8391C17.9599 27.4651 30.1969 23.9051 40.0349 21.0441C45.4449 19.4701 50.1179 18.1111 50.9819 14.8931C51.0443 14.6617 51.1878 14.4603 51.3863 14.3258C51.5848 14.1913 51.825 14.1325 52.0631 14.1603C52.3013 14.188 52.5215 14.3004 52.6837 14.477C52.8459 14.6535 52.9393 14.8825 52.9469 15.1221C52.9779 16.1221 53.5779 39.7321 43.4359 46.6031C40.8461 48.3288 37.7925 49.2255 34.6809 49.1741ZM23.3529 44.0001C25.3529 45.1001 35.0139 49.8931 42.3139 44.9481C49.4139 40.1361 50.7059 25.2721 50.9189 18.5481C48.5759 20.6481 44.6649 21.7831 40.5929 22.9671C31.1599 25.7071 20.4869 28.8121 23.3529 44.0001Z" fill="#BE185D"/>
<path d="M19.2111 55.0442C18.5533 51.2376 19.4065 47.3245 21.5891 44.1372C24.3261 38.0892 29.6581 36.3242 33.9471 34.9052C37.1251 33.8532 39.8701 32.9452 40.8161 30.6492L42.6651 31.4112C41.3651 34.5562 38.0651 35.6472 34.5751 36.8042C30.4331 38.1742 25.7371 39.7282 23.3751 45.0462C23.3444 45.1149 23.3061 45.1799 23.2611 45.2402C21.3879 47.995 20.6407 51.3626 21.1731 54.6512L19.2111 55.0442Z" fill="#BE185D"/>
</g>
<defs>
<clipPath id="clip0_9_147">
<rect width="70" height="70" fill="white" transform="translate(0.959961)"/>
</clipPath>
</defs>
</svg>
