<svg width="72" height="70" viewBox="0 0 72 70" fill="none" xmlns="http://www.w3.org/2000/svg">
<g clip-path="url(#clip0_9_183)">
<g clip-path="url(#clip1_9_183)">
<path d="M29.3182 14.2702L28.1571 21.0385C28.1247 21.2279 28.146 21.4226 28.2184 21.6007C28.2909 21.7787 28.4117 21.9328 28.5672 22.0458C28.7228 22.1587 28.9068 22.2259 29.0985 22.2398C29.2902 22.2536 29.4819 22.2136 29.652 22.1242L35.7302 18.9288L41.8078 22.1242C41.9779 22.2136 42.1697 22.2536 42.3614 22.2398C42.5531 22.2259 42.7371 22.1587 42.8926 22.0458C43.0481 21.9328 43.1689 21.7787 43.2414 21.6007C43.3139 21.4226 43.3351 21.2279 43.3027 21.0385L42.1422 14.2702L47.0599 9.47741C47.1975 9.34313 47.2948 9.17303 47.3409 8.98634C47.3869 8.79965 47.3799 8.6038 47.3205 8.42092C47.2611 8.23803 47.1517 8.07541 47.0047 7.95142C46.8577 7.82743 46.679 7.74701 46.4887 7.71926L39.6928 6.73243L36.654 0.574777C36.5691 0.402274 36.4375 0.257006 36.2742 0.155423C36.111 0.0538398 35.9225 0 35.7302 0C35.5379 0 35.3495 0.0538398 35.1862 0.155423C35.0229 0.257006 34.8914 0.402274 34.8064 0.574777L31.767 6.73243L24.9717 7.71926C24.7814 7.74689 24.6027 7.82721 24.4556 7.95114C24.3086 8.07506 24.1992 8.23765 24.1398 8.42051C24.0804 8.60338 24.0733 8.79922 24.1194 8.98589C24.1655 9.17256 24.2629 9.34261 24.4006 9.47682L29.3182 14.2702ZM32.5996 8.69372C32.7648 8.66956 32.9216 8.60566 33.0567 8.50752C33.1918 8.40937 33.301 8.2799 33.375 8.13024L35.7302 3.36097L38.0854 8.13024C38.1594 8.2799 38.2686 8.40937 38.4037 8.50752C38.5388 8.60566 38.6956 8.66956 38.8609 8.69372L44.1271 9.45916L40.3164 13.1727C40.197 13.2895 40.1079 13.4335 40.0566 13.5924C40.0053 13.7513 39.9934 13.9203 40.022 14.0848L40.9211 19.3286L36.2107 16.8556C36.0628 16.7779 35.8982 16.7373 35.7311 16.7373C35.564 16.7373 35.3994 16.7779 35.2515 16.8556L30.5411 19.3286L31.4408 14.0848C31.4692 13.9203 31.4572 13.7513 31.406 13.5925C31.3547 13.4336 31.2656 13.2896 31.1464 13.1727L27.3363 9.45916L32.5996 8.69372Z" fill="#BE185D"/>
<path d="M70.6795 10.8005C70.6201 10.6177 70.5107 10.4552 70.3638 10.3313C70.2169 10.2074 70.0383 10.127 69.8482 10.0992L64.4512 9.31492L62.0372 4.42789C61.9519 4.2556 61.8202 4.11056 61.6569 4.00915C61.4936 3.90774 61.3053 3.854 61.113 3.854C60.9208 3.854 60.7324 3.90774 60.5691 4.00915C60.4058 4.11056 60.2741 4.2556 60.1889 4.42789L57.7748 9.31787L52.3779 10.1021C52.1877 10.1299 52.009 10.2103 51.8621 10.3342C51.7151 10.4582 51.6058 10.6208 51.5465 10.8036C51.4871 10.9865 51.4801 11.1823 51.5262 11.3689C51.5723 11.5555 51.6697 11.7255 51.8074 11.8597L55.7123 15.6663L54.7908 21.0414C54.7584 21.2309 54.7797 21.4256 54.8522 21.6036C54.9246 21.7816 55.0455 21.9358 55.201 22.0488C55.3565 22.1617 55.5405 22.2289 55.7322 22.2428C55.9239 22.2566 56.1156 22.2166 56.2858 22.1272L61.1139 19.5895L65.9421 22.1272C66.1122 22.2166 66.304 22.2566 66.4957 22.2428C66.6873 22.2289 66.8713 22.1617 67.0269 22.0488C67.1824 21.9358 67.3032 21.7816 67.3757 21.6036C67.4482 21.4256 67.4694 21.2309 67.437 21.0414L66.515 15.6663L70.4205 11.8597C70.5585 11.7251 70.6559 11.5545 70.7017 11.3672C70.7475 11.1799 70.7398 10.9836 70.6795 10.8005ZM64.6879 14.5688C64.5686 14.6855 64.4794 14.8296 64.4282 14.9885C64.3769 15.1473 64.365 15.3163 64.3935 15.4808L65.0536 19.3316L61.5938 17.5128C61.4459 17.435 61.2813 17.3944 61.1142 17.3944C60.9471 17.3944 60.7825 17.435 60.6346 17.5128L57.176 19.331L57.8367 15.4802C57.8652 15.3157 57.8533 15.1468 57.802 14.9879C57.7507 14.829 57.6616 14.685 57.5423 14.5682L54.7437 11.8409L58.6103 11.2792C58.7757 11.2551 58.9326 11.1912 59.0678 11.0931C59.203 10.9949 59.3123 10.8654 59.3864 10.7157L61.1157 7.21173L62.845 10.7157C62.919 10.8653 63.0282 10.9948 63.1633 11.093C63.2984 11.1911 63.4552 11.255 63.6204 11.2792L67.4877 11.8409L64.6879 14.5688Z" fill="#BE185D"/>
<path d="M15.6521 22.2425C15.8022 22.2426 15.9504 22.2099 16.0865 22.1467C16.2226 22.0835 16.3433 21.9914 16.44 21.8767C16.5368 21.762 16.6073 21.6275 16.6466 21.4827C16.686 21.3379 16.6932 21.1863 16.6678 21.0384L15.7463 15.6632L19.6518 11.8567C19.7895 11.7225 19.8869 11.5524 19.933 11.3657C19.9791 11.1791 19.972 10.9832 19.9126 10.8004C19.8532 10.6175 19.7438 10.4549 19.5967 10.331C19.4497 10.2071 19.271 10.1267 19.0807 10.0991L13.6838 9.31482L11.2697 4.42779C11.1846 4.25547 11.053 4.1104 10.8897 4.00896C10.7264 3.90752 10.5381 3.85376 10.3459 3.85376C10.1537 3.85376 9.96529 3.90752 9.80204 4.00896C9.63879 4.1104 9.50716 4.25547 9.42204 4.42779L7.00796 9.31777L1.61281 10.0991C1.42248 10.1266 1.24366 10.2069 1.09657 10.3308C0.949487 10.4547 0.840007 10.6173 0.780519 10.8001C0.721031 10.983 0.713908 11.1789 0.759955 11.3656C0.806003 11.5523 0.903384 11.7224 1.04108 11.8567L4.94658 15.6632L4.02452 21.0384C3.99214 21.2278 4.01339 21.4226 4.08587 21.6006C4.15835 21.7786 4.27918 21.9328 4.43469 22.0457C4.5902 22.1587 4.7742 22.2259 4.96589 22.2397C5.15759 22.2536 5.34934 22.2135 5.51948 22.1241L10.3476 19.5864L15.1758 22.1241C15.3227 22.2015 15.4861 22.2421 15.6521 22.2425ZM10.824 17.5127C10.6761 17.4349 10.5115 17.3943 10.3444 17.3943C10.1773 17.3943 10.0127 17.4349 9.86481 17.5127L6.40798 19.3285L7.06861 15.4778C7.097 15.3133 7.08504 15.1443 7.03376 14.9855C6.98248 14.8266 6.89342 14.6826 6.77421 14.5657L3.97624 11.8384L7.84229 11.2767C8.00764 11.2527 8.16467 11.1889 8.29986 11.0907C8.43506 10.9926 8.54435 10.863 8.61833 10.7132L10.3465 7.20869L12.0758 10.7126C12.1498 10.8624 12.259 10.992 12.3942 11.0902C12.5294 11.1883 12.6865 11.2521 12.8518 11.2761L16.7179 11.8378L13.9199 14.5687C13.8005 14.6854 13.7113 14.8294 13.6601 14.9883C13.6088 15.1472 13.5969 15.3162 13.6255 15.4807L14.2855 19.3315L10.824 17.5127Z" fill="#BE185D"/>
<path d="M57.2848 46.9886C57.2835 45.8829 56.8437 44.8229 56.0619 44.041C55.2801 43.2592 54.22 42.8194 53.1143 42.8182H40.4069V29.2581C40.4069 28.0178 39.9141 26.8282 39.0371 25.9511C38.16 25.074 36.9704 24.5813 35.73 24.5813C34.4897 24.5813 33.3001 25.074 32.423 25.9511C31.546 26.8282 31.0532 28.0178 31.0532 29.2581V31.843C31.0564 33.3258 30.5835 34.7705 29.7043 35.9645L24.6765 42.8182H15.2057C14.9324 42.8182 14.6703 42.9267 14.4771 43.12C14.2839 43.3132 14.1753 43.5753 14.1753 43.8486V68.9696C14.1753 69.2429 14.2839 69.505 14.4771 69.6982C14.6703 69.8915 14.9324 70 15.2057 70H51.3479C52.1654 70.0004 52.965 69.7605 53.6471 69.31C54.3293 68.8595 54.8639 68.2184 55.1846 67.4664C55.5052 66.7145 55.5977 65.8848 55.4505 65.0807C55.3033 64.2766 54.9229 63.5335 54.3567 62.9439C54.8444 62.5968 55.2516 62.1487 55.5505 61.6301C55.8494 61.1115 56.0331 60.5346 56.089 59.9386C56.1449 59.3426 56.0716 58.7416 55.8743 58.1765C55.677 57.6114 55.3602 57.0954 54.9455 56.6637C55.4332 56.3167 55.8404 55.8686 56.1393 55.35C56.4382 54.8314 56.6219 54.2545 56.6778 53.6585C56.7337 53.0625 56.6604 52.4615 56.4631 51.8964C56.2658 51.3312 55.949 50.8153 55.5343 50.3836C56.0756 49.9983 56.5169 49.4891 56.8214 48.8985C57.1259 48.3079 57.2848 47.6531 57.2848 46.9886ZM16.2361 44.8789H24.1684V67.9392H16.2361V44.8789ZM53.1143 49.0983H52.5255C52.2522 49.0983 51.9902 49.2068 51.7969 49.4001C51.6037 49.5933 51.4951 49.8554 51.4951 50.1287C51.4951 50.402 51.6037 50.664 51.7969 50.8573C51.9902 51.0505 52.2522 51.1591 52.5255 51.1591C53.079 51.1683 53.6067 51.3947 53.9949 51.7894C54.383 52.1841 54.6005 52.7155 54.6005 53.269C54.6005 53.8226 54.383 54.354 53.9949 54.7487C53.6067 55.1434 53.079 55.3697 52.5255 55.379H51.9367C51.6634 55.379 51.4014 55.4876 51.2081 55.6808C51.0149 55.874 50.9063 56.1361 50.9063 56.4094C50.9063 56.6827 51.0149 56.9448 51.2081 57.138C51.4014 57.3312 51.6634 57.4398 51.9367 57.4398C52.4962 57.4398 53.0328 57.6621 53.4285 58.0577C53.8241 58.4533 54.0464 58.9899 54.0464 59.5494C54.0464 60.109 53.8241 60.6456 53.4285 61.0412C53.0328 61.4368 52.4962 61.6591 51.9367 61.6591H51.3479C51.0746 61.6591 50.8126 61.7677 50.6193 61.9609C50.4261 62.1542 50.3175 62.4162 50.3175 62.6895C50.3175 62.9628 50.4261 63.2249 50.6193 63.4181C50.8126 63.6114 51.0746 63.7199 51.3479 63.7199C51.9074 63.7199 52.444 63.9422 52.8397 64.3378C53.2353 64.7335 53.4576 65.2701 53.4576 65.8296C53.4576 66.3891 53.2353 66.9257 52.8397 67.3213C52.444 67.717 51.9074 67.9392 51.3479 67.9392H26.2292V44.1853L31.3659 37.1816C32.5051 35.6349 33.1179 33.7633 33.114 31.8424V29.2575C33.114 28.5637 33.3896 27.8983 33.8802 27.4077C34.3708 26.9171 35.0362 26.6415 35.73 26.6415C36.4239 26.6415 37.0893 26.9171 37.5799 27.4077C38.0705 27.8983 38.3461 28.5637 38.3461 29.2575V43.848C38.3461 44.1212 38.4546 44.3833 38.6479 44.5766C38.8411 44.7698 39.1032 44.8784 39.3765 44.8784H53.1143C53.6738 44.8784 54.2104 45.1006 54.6061 45.4963C55.0017 45.8919 55.224 46.4285 55.224 46.988C55.224 47.5475 55.0017 48.0841 54.6061 48.4798C54.2104 48.8754 53.6738 49.0983 53.1143 49.0983Z" fill="#BE185D"/>
</g>
</g>
<defs>
<clipPath id="clip0_9_183">
<rect width="71" height="70" fill="white" transform="translate(0.72998)"/>
</clipPath>
<clipPath id="clip1_9_183">
<rect width="71" height="70" fill="white" transform="translate(0.72998)"/>
</clipPath>
</defs>
</svg>
