<svg width="110" height="110" viewBox="0 0 110 110" fill="none" xmlns="http://www.w3.org/2000/svg">
<mask id="mask0_63_74" style="mask-type:alpha" maskUnits="userSpaceOnUse" x="0" y="0" width="110" height="110">
<g clip-path="url(#clip0_63_74)">
<path d="M30.2831 74.8414C36.7842 76.2022 42.3987 78.0068 48.6338 79.3973C55.9918 81.0243 60.3948 75.0781 66.8959 74.8414C78.9819 74.4864 81.3164 91.3193 87.7288 99.8098C91.8658 105.224 95.7664 108.566 102.415 109.898C109.034 111.199 113.733 105.667 118.875 106.791C125.524 96.3485 126.646 111.111 129.838 114.453C136.487 121.465 141.599 116.968 146.563 110.578C158.62 95.0764 163.111 76.0543 164.884 57.1505C166.805 36.3238 166.51 14.2547 161.9 -6.0691C159.831 -15.2399 155.724 -43.2258 145.647 -46.1841L150.228 -37.0133C151.616 -23.1387 152.001 -6.63119 145.411 5.85299C140.387 15.3788 120.382 24.668 114.354 10.823C107.882 11.6809 107.35 5.52757 106.996 0.6759C100.672 4.55132 88.2311 13.515 86.8718 0.735031C71.0624 3.78212 93.3433 -26.452 96.8894 -30.8304C103.272 -38.7291 113.378 -51.8642 123.544 -55C116.688 -53.2546 109.655 -52.7516 102.622 -50.5329C64.4728 -38.6108 -18.4156 4.90635 3.68792 53.7781C8.62281 64.6647 18.2562 72.3268 30.2831 74.8414Z" fill="black"/>
</g>
</mask>
<g mask="url(#mask0_63_74)">
<rect width="110" height="110" rx="55" fill="#F9F3F0"/>
</g>
<defs>
<clipPath id="clip0_63_74">
<rect width="110" height="110" fill="white"/>
</clipPath>
</defs>
</svg>
