<svg width="23" height="23" viewBox="0 0 23 23" fill="none" xmlns="http://www.w3.org/2000/svg">
<path d="M22.5 1.19531V16.875C22.4531 17.5781 22.0781 17.9531 21.375 18C20.6719 17.9531 20.2969 17.5781 20.25 16.875V3.9375L1.89844 22.2188C1.66406 22.4531 1.40625 22.5703 1.125 22.5703C0.84375 22.5703 0.585937 22.4531 0.351562 22.2188C-0.117187 21.7031 -0.117187 21.1875 0.351562 20.6719L18.7031 2.32031L5.625 2.25C4.92188 2.20312 4.54688 1.82812 4.5 1.125C4.54688 0.46875 4.92188 0.09375 5.625 0L21.375 0.0703125C22.0781 0.117188 22.4531 0.492188 22.5 1.19531Z" fill="#E24486"/>
</svg>
