<svg width="119" height="10" viewBox="0 0 119 10" fill="none" xmlns="http://www.w3.org/2000/svg">
<g clip-path="url(#clip0_36_764)">
<g clip-path="url(#clip1_36_764)">
<path d="M118.482 5.80676H4.53216C4.247 5.80676 4.01367 5.57261 4.01367 5.28643C4.01367 5.00025 4.247 4.76611 4.53216 4.76611H118.482C118.767 4.76611 119 5.00025 119 5.28643C119 5.57261 118.767 5.80676 118.482 5.80676Z" fill="#E24486"/>
<path d="M118.17 9.90397C118.041 9.90397 117.911 9.85194 117.807 9.74788L113.582 5.50723C113.478 5.40316 113.426 5.27308 113.426 5.143C113.426 4.99991 113.478 4.86983 113.582 4.77877L118.119 0.225922C118.326 0.0177917 118.65 0.0177917 118.844 0.225922C119.052 0.434052 119.052 0.759257 118.844 0.954379L114.671 5.143L118.533 9.01942C118.741 9.22755 118.741 9.55275 118.533 9.74788C118.443 9.86495 118.313 9.90397 118.17 9.90397Z" fill="#E24486"/>
<path d="M113.634 9.90397C113.504 9.90397 113.375 9.85194 113.271 9.74788L109.045 5.50723C108.838 5.2991 108.838 4.97389 109.045 4.77877L113.582 0.225922C113.789 0.0177917 114.113 0.0177917 114.308 0.225922C114.515 0.434052 114.515 0.759257 114.308 0.954379L110.134 5.143L113.997 9.01942C114.204 9.22755 114.204 9.55275 113.997 9.74788C113.906 9.86495 113.763 9.90397 113.634 9.90397Z" fill="#E24486"/>
<path d="M109.097 9.90397C108.967 9.90397 108.838 9.85194 108.734 9.74788L104.508 5.50723C104.418 5.40316 104.353 5.27308 104.353 5.143C104.353 4.99991 104.405 4.86983 104.508 4.77877L109.045 0.225922C109.252 0.0177917 109.577 0.0177917 109.784 0.225922C109.991 0.434052 109.991 0.759257 109.784 0.954379L105.61 5.143L109.473 9.01942C109.68 9.22755 109.68 9.55275 109.473 9.74788C109.369 9.86495 109.227 9.90397 109.097 9.90397Z" fill="#E24486"/>
<path d="M104.56 9.90397C104.431 9.90397 104.301 9.85194 104.197 9.74788L99.972 5.50723C99.7646 5.2991 99.7646 4.97389 99.972 4.77877L104.508 0.225922C104.716 0.0177917 105.04 0.0177917 105.247 0.225922C105.455 0.434052 105.455 0.759257 105.247 0.954379L101.073 5.143L104.936 9.01942C105.144 9.22755 105.144 9.55275 104.936 9.74788C104.832 9.86495 104.69 9.90397 104.56 9.90397Z" fill="#E24486"/>
<path d="M10.8576 1.74805L15.7313 5.28627L10.8576 8.82448L0.267578 5.28627L10.8576 1.74805Z" fill="#E24486"/>
</g>
</g>
<defs>
<clipPath id="clip0_36_764">
<rect width="119" height="10" fill="white"/>
</clipPath>
<clipPath id="clip1_36_764">
<rect width="119" height="10" fill="white"/>
</clipPath>
</defs>
</svg>
