<svg width="51" height="70" viewBox="0 0 51 70" fill="none" xmlns="http://www.w3.org/2000/svg">
<g clip-path="url(#clip0_9_215)">
<path d="M47.9397 50.1475C47.287 46.8468 44.9068 45.4944 43.5464 44.9819C43.524 44.9737 43.5016 44.966 43.4787 44.9592C43.215 44.8807 35.7862 42.6688 34.9113 42.4084L32.2398 40.5848V38.9007C36.5479 36.6273 39.4585 32.0753 39.4585 26.8464V26.657C41.6699 26.2446 43.3344 24.5148 43.3344 22.4491C43.3344 21.3275 42.8432 20.305 42.0405 19.5385V10.6925C42.0405 5.7816 37.6361 2.02429 32.8149 2.88412C26.2658 -2.07084 16.8432 -0.503635 12.2737 6.5274C11.9659 7.00113 12.0968 7.63687 12.566 7.94777C13.0352 8.25839 13.665 8.12619 13.9731 7.65273C16.2524 4.14521 20.0901 2.05136 24.2386 2.05136C27.0674 2.05136 29.7255 2.99636 31.9257 4.78396C32.1716 4.98384 32.4962 5.05699 32.8028 4.98166C36.4887 4.07754 40.0085 6.90638 40.0085 10.6925V18.3746C39.8052 18.3141 39.5961 18.2644 39.3818 18.2276C39.23 17.5516 38.8329 16.9656 38.5337 16.7298L34.3092 13.4098C33.2696 12.5929 31.9291 12.4736 31.0366 12.883C20.8015 16.8767 14.6673 16.8767 14.3628 16.9208C13.5987 16.9946 12.8458 17.4497 12.6025 18.2267C12.3864 18.2636 12.1752 18.3134 11.9701 18.3745C12.0268 15.0673 11.8077 13.8048 12.2631 11.7364C12.3847 11.1835 12.0396 10.6355 11.4917 10.5127C10.9438 10.3896 10.401 10.7383 10.2795 11.2914C9.74432 13.7221 10.0076 15.1619 9.93801 19.5381C9.13549 20.3045 8.64437 21.3269 8.64437 22.4486C8.64437 24.5142 10.3089 26.244 12.5202 26.6565V26.6672C12.5202 31.6768 15.2403 36.4099 19.7026 38.8409V40.6003L17.0725 42.3955C16.8648 42.4575 8.46084 44.9575 8.39582 44.9816C7.03527 45.494 4.65535 46.8466 4.00236 50.1476L1.04124 65.1563C1.03758 65.1749 1.03433 65.1935 1.03176 65.2122C0.640051 68.0005 2.12224 70 5.15108 70H15.9762C16.5375 70 16.9923 69.5409 16.9923 68.9743C16.9923 68.4078 16.5375 67.9487 15.9762 67.9487H12.3151V58.2817C12.3151 57.7151 11.8603 57.256 11.299 57.256C10.7377 57.256 10.2829 57.7151 10.2829 58.2817V67.9487H5.15081C3.76425 67.9487 3.01496 67.4784 3.0044 66.0788C2.99871 65.3811 2.9685 66.0759 5.9945 50.549C6.44947 48.2489 8.10421 47.288 9.0736 46.916C9.41952 46.8131 16.7055 44.6436 16.8564 44.5988L18.7191 49.8682C19.0848 50.9022 20.1267 51.392 21.059 51.1965L24.2475 54.0202C25.2254 54.8864 26.7073 54.8937 27.6939 54.0244L30.9036 51.1961C31.8617 51.3975 32.8879 50.8795 33.2453 49.868L35.1059 44.6051C36.0616 44.8896 40.7782 46.2939 42.8677 46.916C43.8369 47.2882 45.4917 48.2487 45.9466 50.5486C49.0234 66.3358 48.9644 65.4391 48.9344 66.1867C48.8858 67.4216 48.2446 67.9485 46.7906 67.9485H41.695V58.2817C41.695 57.7151 41.2402 57.256 40.6789 57.256C40.1176 57.256 39.6628 57.7151 39.6628 58.2817V67.9487H20.7182C20.1569 67.9487 19.7021 68.4078 19.7021 68.9743C19.7021 69.5409 20.1569 70 20.7182 70H46.7907C49.301 70 50.9464 68.6059 50.9694 66.0946C50.9722 65.6961 51.0502 66.096 47.9397 50.1475ZM39.4585 20.3454C41.9185 21.0834 41.9066 23.8185 39.4585 24.5528V20.3454ZM12.5198 24.5528C10.067 23.817 10.0649 21.0821 12.5198 20.3454V24.5528ZM14.552 26.6676C14.552 25.7491 14.552 19.9454 14.552 18.9657C14.5656 18.9632 21.994 18.7435 31.7718 14.7956L31.8505 14.7647C32.0477 14.7 32.5292 14.611 33.0607 15.0286L37.2263 18.3023C37.515 18.6584 37.4264 18.415 37.4264 26.8464C37.4264 31.4076 34.817 35.3595 30.9942 37.2329C30.7495 37.2798 26.711 39.4323 21.9959 37.651C17.5551 35.9434 14.552 31.535 14.552 26.6676ZM30.2075 39.7658V40.9235L27.6159 47.1755L24.3579 47.1756C23.7231 45.6501 21.5998 40.5462 21.7343 40.8677V39.7364C24.539 40.695 27.5328 40.6503 30.2075 39.7658ZM20.6487 49.1879C20.6203 49.1865 20.7153 49.3832 18.7144 43.7511L20.2829 42.6806C20.8448 44.0366 22.1589 47.2065 22.4281 47.856L20.6487 49.1879ZM26.3578 52.4791C26.1383 52.6727 25.8072 52.6724 25.5882 52.4783L22.8773 50.0778L24.0201 49.2267H27.9567L29.0877 50.0737L26.3578 52.4791ZM31.3297 49.1836C31.3116 49.202 31.3437 49.1981 29.5371 47.856C30.3369 45.9263 31.2494 43.7249 31.6823 42.6806L33.2506 43.7511L31.3297 49.1836Z" fill="#E24486"/>
</g>
<defs>
<clipPath id="clip0_9_215">
<rect width="50" height="70" fill="white" transform="translate(0.969971)"/>
</clipPath>
</defs>
</svg>
