<svg width="60" height="60" viewBox="0 0 60 60" fill="none" xmlns="http://www.w3.org/2000/svg">
<g clip-path="url(#clip0_63_45)">
<g clip-path="url(#clip1_63_45)">
<g clip-path="url(#clip2_63_45)">
<mask id="mask0_63_45" style="mask-type:luminance" maskUnits="userSpaceOnUse" x="0" y="0" width="60" height="60">
<path d="M60 0H0V60H60V0Z" fill="white"/>
</mask>
<g mask="url(#mask0_63_45)">
<path d="M59.9895 39.0078C60.0049 36.1719 58.0146 33.7199 55.2361 33.1517L52.1711 28.2334C50.5516 25.63 47.5986 24.0133 44.465 24.0133H39.5107C39.5481 22.3373 39.3505 20.6643 38.9234 19.0432C40.7257 18.1874 41.4977 16.036 40.6509 14.2294L39.9031 12.6441C39.1447 11.038 37.3321 10.2204 35.6261 10.7148C34.743 8.65599 33.2533 6.91526 31.3555 5.72482C30.0774 4.91062 28.6415 4.37556 27.1422 4.15502C26.9956 4.13003 26.8248 4.1269 26.6696 4.10966C25.6342 0.972062 22.2514 -0.732188 19.1136 0.303183C15.9759 1.33855 14.2718 4.72144 15.3072 7.85916C15.4783 8.37785 15.7198 8.87079 16.0246 9.324C15.2039 10.6426 14.6728 12.1206 14.4662 13.6599C14.3989 14.1457 14.3654 14.6357 14.3663 15.1262C14.3628 16.8693 14.7773 18.5878 15.5752 20.1376C14.2859 21.0269 13.7117 22.6426 14.1507 24.146C11.5242 24.5758 9.18652 26.1152 7.84964 28.3899L4.65219 33.7658C4.39216 33.8441 4.13 33.9157 3.87235 34.0021C0.917681 34.9829 -0.682233 38.1734 0.298658 41.1279C0.616041 42.0838 1.18371 42.9373 1.9428 43.5995C0.747493 44.3185 0.0150118 45.6102 0.011513 47.005V51.0036C0.011763 52.1423 0.49671 53.2271 1.34502 53.9869L2.67654 52.4953C2.25269 52.1153 2.01066 51.5729 2.01078 51.0036V47.005C2.01228 45.9014 2.90645 45.0073 4.01005 45.0058H55.991C57.0946 45.0073 57.9888 45.9014 57.9903 47.005V51.0036C57.9888 52.1072 57.0946 53.0013 55.991 53.0028H20.0042V55.0021H55.991C58.1984 54.9999 59.9873 53.211 59.9895 51.0036V47.005C59.9846 45.5649 59.2032 44.2394 57.9454 43.5381C59.2472 42.3925 59.992 40.7417 59.9895 39.0078ZM50.4745 29.2907L52.858 33.1161L42.3517 34.0269L38.5974 31.2107C38.4244 31.0808 38.2139 31.0105 37.9976 31.0108H37.5446C38.3866 29.7897 38.9637 28.406 39.2394 26.9486C39.2967 26.647 39.3448 26.3331 39.3848 26.0125H44.465C46.9133 26.0126 49.2161 27.268 50.4745 29.2907ZM38.0933 13.4937L38.843 15.084C39.1759 15.7982 38.9464 16.6483 38.2994 17.098C38.2289 16.9163 38.1744 16.7231 38.0982 16.5473L36.4218 12.58C37.1184 12.4887 37.7942 12.8581 38.0933 13.4937ZM33.8292 11.5794L36.26 17.3332C36.4659 17.8097 36.6442 18.2979 36.7939 18.7951C37.4194 20.7804 37.6525 22.8685 37.4802 24.9429C37.4442 25.4928 37.3753 26.0401 37.2742 26.5819C37.0207 27.9513 36.4417 29.2396 35.586 30.3381C35.3922 30.5789 35.1799 30.8044 34.951 31.0122L26.0673 31.0996C24.0527 29.8482 22.3406 28.1659 21.0538 26.1737C20.7698 25.7451 20.5091 25.3016 20.2728 24.845L17.3911 19.3109C16.7233 18.038 16.3728 16.6228 16.3695 15.1853L17.0934 15.4462L17.7709 13.566L16.5987 13.1435C16.7359 12.5262 16.9378 11.9251 17.2012 11.3504L19.4504 12.8498L20.5595 11.1864L18.2205 9.62726C18.9006 8.72472 19.7448 7.95837 20.7087 7.36847L22.1187 10.3673L23.9285 9.51605L22.5179 6.51578C23.546 6.16266 24.6304 6.00159 25.7167 6.04095L25.0327 8.7767L26.9715 9.26102L27.7101 6.30623C28.363 6.47254 28.9946 6.71333 29.5925 7.02384L29.1659 8.20866L31.0461 8.88616L31.3052 8.1668C32.4059 9.08759 33.2711 10.2574 33.8292 11.5794ZM16.5062 21.9391L18.5009 25.7701C18.5971 25.9521 18.6883 26.1177 18.7764 26.2756C18.0174 26.4836 17.2195 26.1113 16.8911 25.3962L16.1423 23.8218C15.8466 23.1813 15.993 22.4233 16.5062 21.9391ZM21.0038 2.02143C22.451 2.02467 23.7833 2.81039 24.4864 4.0753C21.7485 4.30409 19.1955 5.54976 17.3302 7.56689C16.4606 5.55351 17.3878 3.21636 19.4012 2.34681C19.9071 2.12826 20.4529 2.01755 21.0038 2.02143ZM9.57051 29.4079C10.6932 27.4961 12.7336 26.2573 14.9899 26.0546L15.0812 26.2469C15.9192 28.0537 18.0631 28.8393 19.8701 28.0014C19.8794 27.9971 19.8886 27.9928 19.8977 27.9884L19.9041 27.9855C20.8126 29.2552 21.8816 30.402 23.0844 31.3974L9.86727 32.7191C9.03271 32.8024 8.20276 32.9338 7.37794 33.0933L9.57051 29.4079ZM4.50499 35.8976C6.3092 35.297 8.17439 34.8981 10.0665 34.7087L27.0016 33.01H37.6647L39.4658 34.361L27.8597 36.0177C27.7901 36.0277 27.7216 36.0451 27.6556 36.0694L8.82953 43.0054H5.65794C3.64356 43.0054 2.01053 41.3722 2.01065 39.3578C2.01078 37.7878 3.01554 36.3939 4.50499 35.8976ZM54.0917 43.0064H52.0363L29.0884 40.971C28.9497 40.9573 28.8097 40.9744 28.6784 41.021L22.8381 43.0064H14.6103L28.2473 37.9818L41.192 36.1339L53.8918 35.0093H54.0812C54.2218 35.0088 54.3623 35.0169 54.5019 35.0337C56.4908 35.2523 57.9903 36.9607 57.9903 39.0078C57.9903 41.213 56.2409 43.0064 54.0917 43.0064Z" fill="#E24486"/>
<path d="M20.6672 22.4163L21.9207 23.9743C23.0038 23.1051 24.2779 22.5059 25.638 22.2258L25.2382 20.2676C23.5658 20.6113 21.9991 21.3479 20.6672 22.4163Z" fill="#E24486"/>
<path d="M30.5687 25.5918C29.858 25.9267 29.0855 26.1105 28.3 26.1316L28.136 26.1355L28.1828 28.1347L28.3459 28.1309C30.081 28.0848 31.7497 27.4544 33.0817 26.3415L31.799 24.8088C31.4244 25.1217 31.0108 25.3849 30.5687 25.5918Z" fill="#E24486"/>
<path d="M24.8815 19.5666L25.4476 17.6493C22.6225 16.8166 19.7818 18.157 18.6934 20.8396L20.5462 21.5912C21.251 19.8536 23.0316 19.0228 24.8815 19.5666Z" fill="#E24486"/>
<path d="M27.4141 16.7249L29.2509 17.5122C30.0094 15.7423 31.7851 14.9027 33.5764 15.465L34.1778 13.5595C31.4181 12.6854 28.5734 14.0179 27.4141 16.7249Z" fill="#E24486"/>
<path d="M26.2263 19.0676L28.0363 18.2156L30.646 23.7596L28.836 24.6116L26.2263 19.0676Z" fill="#E24486"/>
<path d="M30.8685 19.9017C31.9519 19.0326 33.2263 18.4333 34.5865 18.1531L34.1843 16.1948C32.5124 16.5388 30.9463 17.2753 29.6147 18.3434L30.8685 19.9017Z" fill="#E24486"/>
<path d="M17.5537 51.1004C17.1021 50.3744 16.3776 49.8606 15.5432 49.6744C15.0527 49.5608 14.5468 49.5291 14.046 49.5803C14.0347 49.5158 14.022 49.4515 14.0062 49.3871C13.8029 48.5653 13.2705 47.8634 12.5338 47.4463C11.0517 46.588 9.11904 47.0314 8.22674 48.4351C7.97933 48.8236 7.79989 49.2514 7.69618 49.7001C6.79014 49.5473 5.8621 49.7911 5.14812 50.3695L5.11663 50.3945C4.47736 50.9042 4.07926 51.6572 4.01803 52.4725C3.95805 53.2787 4.23645 54.0734 4.78662 54.6658L4.89283 54.7823C5.19472 55.1115 5.54672 55.3912 5.93583 55.6107C5.5406 56.4042 5.52498 57.3336 5.89322 58.1399C6.62607 59.6766 8.41792 60.3907 10.007 59.7795C10.4603 59.6043 10.881 59.3545 11.2518 59.0403C11.8634 59.6546 12.6945 60 13.5613 60.0001C13.6373 60.0001 13.7136 59.9975 13.7905 59.9921C14.6378 59.9395 15.4271 59.544 15.9764 58.8967C16.4977 58.2855 16.7474 57.4882 16.6679 56.6888C16.6224 56.2245 16.4987 55.771 16.302 55.348C17.1166 54.9622 17.7129 54.2287 17.9242 53.3526C18.1081 52.5825 17.9745 51.7709 17.5537 51.1004ZM15.0935 51.6226C15.4079 51.69 15.682 51.8811 15.8541 52.1527C15.993 52.3707 16.0385 52.6353 15.9801 52.8871C15.8719 53.3394 15.429 53.6527 14.9215 53.6659C14.1878 53.1251 13.3083 52.8176 12.3975 52.7834C12.8597 51.8713 13.9723 51.3632 15.0935 51.6226ZM9.91412 49.5075C10.2335 49.0051 10.9744 48.8537 11.5318 49.1765C11.7958 49.3223 11.9884 49.5702 12.0642 49.8621C12.0971 49.9964 12.0997 50.1364 12.0718 50.2718C11.3206 50.7525 10.7448 51.463 10.4299 52.2974C10.0458 51.9912 9.77305 51.5673 9.65347 51.0909C9.51902 50.5497 9.61336 49.977 9.91412 49.5075ZM6.0118 52.6208C6.03442 52.3548 6.16687 52.1104 6.37729 51.9461L6.4089 51.9211C6.80426 51.6082 7.35156 51.5712 7.78552 51.8277C8.0513 52.6688 8.57286 53.406 9.2776 53.9366C8.30359 54.4315 7.12002 54.227 6.36842 53.434L6.26208 53.3177C6.0854 53.1303 5.99468 52.8779 6.0118 52.6208ZM9.28223 57.9168C8.68445 58.149 7.96696 57.8744 7.71493 57.317C7.53412 56.9259 7.64045 56.462 7.97346 56.1886C8.03656 56.1913 8.09953 56.1933 8.16264 56.1933C9.04319 56.1964 9.90487 55.9387 10.6392 55.453C10.7419 55.869 10.7098 56.3069 10.5476 56.7035C10.3123 57.2657 9.85402 57.7052 9.28223 57.9168ZM14.4497 57.6059C14.2475 57.8398 13.9588 57.9812 13.65 57.9977C13.1496 58.0356 12.676 57.7666 12.4522 57.3172C12.75 56.508 12.7784 55.6242 12.5334 54.7974C13.6533 54.9316 14.5717 55.7875 14.6778 56.8818C14.7035 57.144 14.6211 57.4056 14.4497 57.6059Z" fill="#E24486"/>
</g>
</g>
</g>
</g>
<defs>
<clipPath id="clip0_63_45">
<rect width="60" height="60" fill="white"/>
</clipPath>
<clipPath id="clip1_63_45">
<rect width="60" height="60" fill="white"/>
</clipPath>
<clipPath id="clip2_63_45">
<rect width="60" height="60" fill="white"/>
</clipPath>
</defs>
</svg>
