<svg width="270" height="16" viewBox="0 0 270 16" fill="none" xmlns="http://www.w3.org/2000/svg">
<g clip-path="url(#clip0_24_734)">
<mask id="mask0_24_734" style="mask-type:luminance" maskUnits="userSpaceOnUse" x="0" y="0" width="270" height="16">
<path d="M270 0H0V16H270V0Z" fill="white"/>
</mask>
<g mask="url(#mask0_24_734)">
<mask id="mask1_24_734" style="mask-type:luminance" maskUnits="userSpaceOnUse" x="0" y="0" width="270" height="16">
<path d="M270 0H0V16H270V0Z" fill="white"/>
</mask>
<g mask="url(#mask1_24_734)">
<path d="M114.468 8.80676H0.518483C0.233317 8.80676 0 8.57261 0 8.28643C0 8.00025 0.233317 7.76611 0.518483 7.76611H114.468C114.753 7.76611 114.987 8.00025 114.987 8.28643C114.987 8.57261 114.753 8.80676 114.468 8.80676Z" fill="#E24486"/>
<path d="M0.829573 12.904C0.699953 12.904 0.557371 12.852 0.466637 12.7479C0.259244 12.5398 0.259244 12.2146 0.466637 12.0194L4.32933 8.143L0.155545 3.95438C-0.0518483 3.74625 -0.0518483 3.42105 0.155545 3.22592C0.362938 3.01779 0.686992 3.01779 0.894385 3.22592L5.43111 7.77877C5.6385 7.9869 5.6385 8.3121 5.43111 8.50723L1.20547 12.7479C1.10178 12.865 0.959194 12.904 0.829573 12.904Z" fill="#E24486"/>
<path d="M5.3657 12.904C5.23608 12.904 5.10646 12.852 5.00277 12.7479C4.79537 12.5398 4.79537 12.2146 5.00277 12.0194L8.86546 8.143L4.69168 3.95438C4.48428 3.74625 4.48428 3.42105 4.69168 3.22592C4.89907 3.01779 5.22312 3.01779 5.41755 3.22592L9.95428 7.77877C10.058 7.86983 10.1098 8.01291 10.1098 8.143C10.1098 8.28608 10.058 8.41617 9.95428 8.50723L5.72864 12.7479C5.63791 12.865 5.49533 12.904 5.3657 12.904Z" fill="#E24486"/>
<path d="M9.90281 12.904C9.77319 12.904 9.64358 12.852 9.53988 12.7479C9.33249 12.5398 9.33249 12.2146 9.53988 12.0194L13.4026 8.143L9.22878 3.95438C9.02139 3.74625 9.02139 3.42105 9.22878 3.22592C9.43617 3.01779 9.76023 3.01779 9.96762 3.22592L14.5044 7.77877C14.7118 7.9869 14.7118 8.3121 14.5044 8.50723L10.2788 12.7479C10.1751 12.865 10.0454 12.904 9.90281 12.904Z" fill="#E24486"/>
<path d="M14.4399 12.904C14.3103 12.904 14.1677 12.852 14.0769 12.7479C13.8696 12.5398 13.8696 12.2146 14.0769 12.0194L17.9396 8.143L13.7659 3.95438C13.5585 3.74625 13.5585 3.42105 13.7659 3.22592C13.9732 3.01779 14.2973 3.01779 14.4917 3.22592L19.0285 7.77877C19.1322 7.86983 19.184 8.01291 19.184 8.143C19.184 8.28608 19.1322 8.41617 19.0285 8.50723L14.8028 12.7479C14.7121 12.865 14.5825 12.904 14.4399 12.904Z" fill="#E24486"/>
<path d="M108.155 4.74805L103.269 8.28628L108.155 11.8245L118.733 8.28628L108.155 4.74805Z" fill="#E24486"/>
<path d="M269.482 8.80676H155.532C155.247 8.80676 155.013 8.57261 155.013 8.28643C155.013 8.00025 155.247 7.76611 155.532 7.76611H269.482C269.767 7.76611 270 8.00025 270 8.28643C270 8.57261 269.767 8.80676 269.482 8.80676Z" fill="#E24486"/>
<path d="M269.17 12.904C269.041 12.904 268.911 12.852 268.807 12.7479L264.582 8.50723C264.478 8.40316 264.426 8.27308 264.426 8.143C264.426 7.99991 264.478 7.86983 264.582 7.77877L269.119 3.22592C269.326 3.01779 269.65 3.01779 269.844 3.22592C270.052 3.43405 270.052 3.75926 269.844 3.95438L265.671 8.143L269.533 12.0194C269.741 12.2276 269.741 12.5528 269.533 12.7479C269.443 12.865 269.313 12.904 269.17 12.904Z" fill="#E24486"/>
<path d="M264.634 12.904C264.504 12.904 264.375 12.852 264.271 12.7479L260.045 8.50723C259.838 8.2991 259.838 7.97389 260.045 7.77877L264.582 3.22592C264.789 3.01779 265.113 3.01779 265.308 3.22592C265.515 3.43405 265.515 3.75926 265.308 3.95438L261.134 8.143L264.997 12.0194C265.204 12.2276 265.204 12.5528 264.997 12.7479C264.906 12.865 264.763 12.904 264.634 12.904Z" fill="#E24486"/>
<path d="M260.097 12.904C259.967 12.904 259.838 12.852 259.734 12.7479L255.508 8.50723C255.418 8.40316 255.353 8.27308 255.353 8.143C255.353 7.99991 255.405 7.86983 255.508 7.77877L260.045 3.22592C260.252 3.01779 260.577 3.01779 260.784 3.22592C260.991 3.43405 260.991 3.75926 260.784 3.95438L256.61 8.143L260.473 12.0194C260.68 12.2276 260.68 12.5528 260.473 12.7479C260.369 12.865 260.227 12.904 260.097 12.904Z" fill="#E24486"/>
<path d="M255.56 12.904C255.431 12.904 255.301 12.852 255.197 12.7479L250.972 8.50723C250.764 8.2991 250.764 7.97389 250.972 7.77877L255.508 3.22592C255.716 3.01779 256.04 3.01779 256.247 3.22592C256.455 3.43405 256.455 3.75926 256.247 3.95438L252.073 8.143L255.936 12.0194C256.144 12.2276 256.144 12.5528 255.936 12.7479C255.832 12.865 255.69 12.904 255.56 12.904Z" fill="#E24486"/>
<path d="M161.857 4.74805L166.731 8.28628L161.857 11.8245L151.267 8.28628L161.857 4.74805Z" fill="#E24486"/>
<path d="M135 16C130.606 16 127.028 12.4098 127.028 8C127.028 3.59024 130.606 0 135 0C139.394 0 142.972 3.59024 142.972 8C142.972 12.4098 139.394 16 135 16ZM135 1.45691C131.41 1.45691 128.48 4.39675 128.48 8C128.48 11.6032 131.397 14.5431 135 14.5431C138.591 14.5431 141.52 11.6032 141.52 8C141.52 4.38374 138.591 1.45691 135 1.45691Z" fill="#E24486"/>
<path d="M123.49 12.8911C120.794 12.8911 118.603 10.6927 118.603 7.98707C118.603 5.28138 120.794 3.08301 123.49 3.08301C126.186 3.08301 128.376 5.28138 128.376 7.98707C128.376 10.6927 126.186 12.8911 123.49 12.8911ZM123.49 4.55293C121.597 4.55293 120.068 6.10089 120.068 8.00008C120.068 9.89926 121.61 11.4472 123.49 11.4472C125.382 11.4472 126.925 9.89926 126.925 8.00008C126.925 6.10089 125.382 4.55293 123.49 4.55293Z" fill="#E24486"/>
<path d="M125.214 7.98692C125.214 8.93651 124.449 9.717 123.49 9.717C122.544 9.717 121.766 8.93651 121.766 7.98692C121.766 7.03732 122.544 6.25684 123.49 6.25684C124.436 6.25684 125.214 7.03732 125.214 7.98692Z" fill="#E24486"/>
<path d="M146.523 12.8911C143.827 12.8911 141.636 10.6927 141.636 7.98707C141.636 5.28138 143.827 3.08301 146.523 3.08301C149.219 3.08301 151.41 5.28138 151.41 7.98707C151.41 10.6927 149.219 12.8911 146.523 12.8911ZM146.523 4.55293C144.631 4.55293 143.101 6.10089 143.101 8.00008C143.101 9.89926 144.644 11.4472 146.523 11.4472C148.416 11.4472 149.958 9.89926 149.958 8.00008C149.958 6.10089 148.416 4.55293 146.523 4.55293Z" fill="#E24486"/>
<path d="M148.247 7.98692C148.247 8.93651 147.47 9.717 146.523 9.717C145.577 9.717 144.799 8.93651 144.799 7.98692C144.799 7.03732 145.577 6.25684 146.523 6.25684C147.47 6.25684 148.247 7.03732 148.247 7.98692Z" fill="#E24486"/>
<path d="M139.446 7.98718C139.446 10.4457 137.45 12.4489 135 12.4489C132.55 12.4489 130.554 10.4457 130.554 7.98718C130.554 5.52864 132.55 3.52539 135 3.52539C137.45 3.52539 139.446 5.52864 139.446 7.98718Z" fill="#E24486"/>
</g>
</g>
</g>
<defs>
<clipPath id="clip0_24_734">
<rect width="270" height="16" fill="white"/>
</clipPath>
</defs>
</svg>
